<svg width="38" height="38" viewBox="0 0 38 38" fill="none" xmlns="http://www.w3.org/2000/svg">
<path d="M18.2084 23.5678H6.33337V29.1095C6.33337 29.8125 6.58407 30.4142 7.08546 30.9145C7.58685 31.4148 8.18851 31.6655 8.89046 31.6666H18.2084V23.5678ZM19.7917 23.5678V31.6666H29.1096C29.8126 31.6666 30.4143 31.4159 30.9146 30.9145C31.415 30.4131 31.6657 29.8114 31.6667 29.1095V23.5678H19.7917ZM18.2084 21.9845V13.8842H6.33337V21.9845H18.2084ZM19.7917 21.9845H31.6667V13.8842H19.7917V21.9845ZM6.33337 12.3008H31.6667V8.89034C31.6667 8.18734 31.416 7.58567 30.9146 7.08534C30.4132 6.585 29.8121 6.33431 29.1112 6.33325H8.89046C8.18746 6.33325 7.58579 6.58395 7.08546 7.08534C6.58512 7.58672 6.33443 8.18839 6.33337 8.89034V12.3008Z" fill="#6F6F6F"/>
</svg>
