<svg width="27" height="27" viewBox="0 0 27 27" fill="none" xmlns="http://www.w3.org/2000/svg">
<path d="M11.8161 3.45582V8.62915C11.8147 9.27445 11.6198 9.90489 11.2559 10.4409C10.8921 10.977 10.3756 11.3946 9.77157 11.6411C9.37083 11.8042 8.94103 11.8863 8.5076 11.8825H3.28154C2.41 11.879 1.57538 11.5346 0.960368 10.9249C0.345358 10.3152 6.34956e-05 9.48969 7.08152e-05 8.62915V3.46916C6.34956e-05 2.60863 0.345358 1.78314 0.960368 1.17341C1.57538 0.563672 2.41 0.219355 3.28154 0.215828H8.5076C9.38104 0.221105 10.2184 0.560424 10.8438 1.16249C11.4601 1.77134 11.8093 2.59502 11.8161 3.45582ZM26.3329 3.46916V8.62915C26.3312 9.48835 25.9867 10.3123 25.3741 10.9225C25.0723 11.2286 24.7111 11.4715 24.3119 11.6364C23.9128 11.8014 23.4841 11.8851 23.0514 11.8825H17.8659C16.9924 11.8772 16.1551 11.5379 15.5297 10.9358C15.2241 10.6325 14.9821 10.2726 14.8176 9.87677C14.6531 9.48096 14.5692 9.057 14.5709 8.62915V3.46916C14.5698 3.04218 14.6553 2.61931 14.8223 2.22545C14.9892 1.83159 15.2344 1.47471 15.5432 1.17583C15.8468 0.872105 16.2084 0.630869 16.6071 0.466083C17.0058 0.301298 17.4337 0.216238 17.8659 0.215828H23.0919C23.9636 0.222797 24.7976 0.567796 25.414 1.17641C26.0304 1.78502 26.3798 2.60848 26.3869 3.46916H26.3329ZM11.8161 17.8158V22.9758C11.8143 23.403 11.7273 23.8257 11.5601 24.2198C11.3929 24.6138 11.1487 24.9715 10.8415 25.2724C10.5342 25.5732 10.17 25.8114 9.76956 25.9733C9.36912 26.1351 8.9403 26.2176 8.5076 26.2158H3.28154C2.41135 26.2141 1.57687 25.874 0.958856 25.2691C0.65247 24.9691 0.40984 24.6118 0.245199 24.2179C0.0805573 23.8241 -0.00278149 23.4018 7.08152e-05 22.9758V17.8158C-0.00278149 17.3898 0.0805573 16.9675 0.245199 16.5737C0.40984 16.1799 0.65247 15.8225 0.958856 15.5225C1.5733 14.909 2.4078 14.5593 3.28154 14.5491H8.5076C9.38397 14.5527 10.2234 14.8979 10.8431 15.5098C11.4628 16.1217 11.8125 16.9505 11.8161 17.8158ZM26.2384 20.4025C26.2349 20.6666 26.127 20.919 25.9378 21.1058C25.7487 21.2926 25.4931 21.399 25.2256 21.4025H21.4174V25.1358C21.4174 25.401 21.3107 25.6554 21.1208 25.8429C20.9309 26.0304 20.6732 26.1358 20.4046 26.1358C20.136 26.1358 19.8784 26.0304 19.6885 25.8429C19.4985 25.6554 19.3918 25.401 19.3918 25.1358V21.4025H15.6107C15.3421 21.4025 15.0845 21.2971 14.8945 21.1096C14.7046 20.922 14.5979 20.6677 14.5979 20.4025C14.5979 20.1373 14.7046 19.8829 14.8945 19.6954C15.0845 19.5078 15.3421 19.4025 15.6107 19.4025H19.3918V15.6425C19.3918 15.3773 19.4985 15.1229 19.6885 14.9354C19.8784 14.7478 20.136 14.6425 20.4046 14.6425C20.6732 14.6425 20.9309 14.7478 21.1208 14.9354C21.3107 15.1229 21.4174 15.3773 21.4174 15.6425V19.4025H25.2256C25.4942 19.4025 25.7518 19.5078 25.9417 19.6954C26.1317 19.8829 26.2384 20.1373 26.2384 20.4025Z" fill="#6E6E6E"/>
</svg>
