<svg width="32" height="20" viewBox="0 0 32 20" fill="none" xmlns="http://www.w3.org/2000/svg">
<path d="M15.6292 0C16.8382 0 17.9976 0.508619 18.8525 1.41397C19.7074 2.31932 20.1877 3.54723 20.1877 4.82759C20.1877 6.10794 19.7074 7.33586 18.8525 8.24121C17.9976 9.14655 16.8382 9.65517 15.6292 9.65517C14.4202 9.65517 13.2607 9.14655 12.4058 8.24121C11.5509 7.33586 11.0707 6.10794 11.0707 4.82759C11.0707 3.54723 11.5509 2.31932 12.4058 1.41397C13.2607 0.508619 14.4202 0 15.6292 0ZM6.51215 3.44828C7.24151 3.44828 7.91878 3.65517 8.50487 4.02759C8.30951 6 8.85653 7.95862 9.97662 9.48966C9.3254 10.8138 8.02297 11.7241 6.51215 11.7241C5.47587 11.7241 4.48204 11.2882 3.74928 10.5122C3.01652 9.73615 2.60486 8.68365 2.60486 7.58621C2.60486 6.48876 3.01652 5.43626 3.74928 4.66025C4.48204 3.88423 5.47587 3.44828 6.51215 3.44828ZM24.7462 3.44828C25.7825 3.44828 26.7763 3.88423 27.5091 4.66025C28.2418 5.43626 28.6535 6.48876 28.6535 7.58621C28.6535 8.68365 28.2418 9.73615 27.5091 10.5122C26.7763 11.2882 25.7825 11.7241 24.7462 11.7241C23.2354 11.7241 21.9329 10.8138 21.2817 9.48966C22.4168 7.93687 22.9438 5.98091 22.7535 4.02759C23.3396 3.65517 24.0168 3.44828 24.7462 3.44828ZM7.16337 17.5862C7.16337 14.731 10.9534 12.4138 15.6292 12.4138C20.3049 12.4138 24.095 14.731 24.095 17.5862V20H7.16337V17.5862ZM0 20V17.931C0 16.0138 2.46159 14.4 5.79582 13.931C5.02738 14.869 4.55851 16.1655 4.55851 17.5862V20H0ZM31.2583 20H26.6998V17.5862C26.6998 16.1655 26.2309 14.869 25.4625 13.931C28.7967 14.4 31.2583 16.0138 31.2583 17.931V20Z" fill="#6F6F6F"/>
</svg>
