<svg width="33" height="20" viewBox="0 0 33 20" fill="none" xmlns="http://www.w3.org/2000/svg">
<path fill-rule="evenodd" clip-rule="evenodd" d="M4.20072 2.4V4H2.52043C1.85197 4 1.21089 4.25286 0.738218 4.70294C0.265545 5.15303 0 5.76348 0 6.4V17.6C0 18.2365 0.265545 18.847 0.738218 19.2971C1.21089 19.7471 1.85197 20 2.52043 20H25.4844C25.8154 20 26.1431 19.9379 26.4489 19.8173C26.7547 19.6967 27.0326 19.5199 27.2666 19.2971C27.5007 19.0742 27.6863 18.8096 27.813 18.5184C27.9396 18.2273 28.0048 17.9152 28.0048 17.6V16H29.6851C31.0742 16 32.2056 14.9227 32.2056 13.6V2.4C32.2056 1.07733 31.0742 0 29.6851 0H6.72116C5.33212 0 4.20072 1.07733 4.20072 2.4ZM7.00121 2.66667V4H25.4844C25.8154 4 26.1431 4.06208 26.4489 4.18269C26.7547 4.3033 27.0326 4.48008 27.2666 4.70294C27.5007 4.9258 27.6863 5.19038 27.813 5.48156C27.9396 5.77274 28.0048 6.08483 28.0048 6.4V13.3333H29.4051V2.66667H7.00121ZM11.2019 12C11.2019 11.2928 11.497 10.6145 12.0222 10.1144C12.5474 9.61429 13.2597 9.33333 14.0024 9.33333C14.7451 9.33333 15.4575 9.61429 15.9827 10.1144C16.5078 10.6145 16.8029 11.2928 16.8029 12C16.8029 12.7072 16.5078 13.3855 15.9827 13.8856C15.4575 14.3857 14.7451 14.6667 14.0024 14.6667C13.2597 14.6667 12.5474 14.3857 12.0222 13.8856C11.497 13.3855 11.2019 12.7072 11.2019 12Z" fill="#6F6F6F"/>
</svg>
