<svg width="32" height="31" viewBox="0 0 32 31" fill="none" xmlns="http://www.w3.org/2000/svg">
<path d="M8.93095 12.4C10.51 12.4 12.0245 11.7468 13.141 10.5841C14.2576 9.42134 14.8849 7.84434 14.8849 6.2C14.8849 4.55566 14.2576 2.97866 13.141 1.81594C12.0245 0.653212 10.51 0 8.93095 0C7.35186 0 5.83745 0.653212 4.72086 1.81594C3.60427 2.97866 2.97698 4.55566 2.97698 6.2C2.97698 7.84434 3.60427 9.42134 4.72086 10.5841C5.83745 11.7468 7.35186 12.4 8.93095 12.4ZM22.3274 12.4C23.5117 12.4 24.6475 11.9101 25.4849 11.038C26.3224 10.166 26.7929 8.98326 26.7929 7.75C26.7929 6.51674 26.3224 5.334 25.4849 4.46195C24.6475 3.58991 23.5117 3.1 22.3274 3.1C21.1431 3.1 20.0072 3.58991 19.1698 4.46195C18.3324 5.334 17.8619 6.51674 17.8619 7.75C17.8619 8.98326 18.3324 10.166 19.1698 11.038C20.0072 11.9101 21.1431 12.4 22.3274 12.4ZM3.34911 15.5C2.46087 15.5 1.60901 15.8674 0.980931 16.5215C0.352851 17.1755 0 18.0626 0 18.9875V19.375C0 19.375 0 26.35 8.93095 26.35C11 26.35 12.5897 25.9764 13.8102 25.3998C13.5349 24.4514 13.3955 23.4658 13.3964 22.475C13.3964 19.9066 14.3193 17.563 15.8376 15.7836C15.4197 15.5941 14.9685 15.4975 14.5128 15.5H3.34911ZM31.2583 22.475C31.2583 20.214 30.3958 18.0457 28.8605 16.4469C27.3252 14.8482 25.2429 13.95 23.0716 13.95C20.9004 13.95 18.8181 14.8482 17.2828 16.4469C15.7474 18.0457 14.8849 20.214 14.8849 22.475C14.8849 24.736 15.7474 26.9043 17.2828 28.5031C18.8181 30.1018 20.9004 31 23.0716 31C25.2429 31 27.3252 30.1018 28.8605 28.5031C30.3958 26.9043 31.2583 24.736 31.2583 22.475ZM23.8159 23.25L23.8174 27.1297C23.8174 27.3352 23.7389 27.5323 23.5994 27.6777C23.4598 27.823 23.2705 27.9046 23.0731 27.9046C22.8757 27.9046 22.6864 27.823 22.5469 27.6777C22.4073 27.5323 22.3289 27.3352 22.3289 27.1297V23.25H18.6002C18.4028 23.25 18.2135 23.1683 18.0739 23.023C17.9344 22.8777 17.856 22.6805 17.856 22.475C17.856 22.2695 17.9344 22.0723 18.0739 21.927C18.2135 21.7817 18.4028 21.7 18.6002 21.7H22.3274V17.825C22.3274 17.6195 22.4058 17.4223 22.5454 17.277C22.6849 17.1317 22.8742 17.05 23.0716 17.05C23.269 17.05 23.4583 17.1317 23.5979 17.277C23.7375 17.4223 23.8159 17.6195 23.8159 17.825V21.7H27.5326C27.73 21.7 27.9193 21.7817 28.0589 21.927C28.1985 22.0723 28.2769 22.2695 28.2769 22.475C28.2769 22.6805 28.1985 22.8777 28.0589 23.023C27.9193 23.1683 27.73 23.25 27.5326 23.25H23.8159Z" fill="#6F6F6F"/>
</svg>
